<?xml version="1.0" encoding="utf-8"?>
<!-- Generator: Adobe Illustrator 21.0.0, SVG Export Plug-In . SVG Version: 6.00 Build 0)  -->
<svg version="1.1" id="logo_lockups" xmlns="http://www.w3.org/2000/svg" xmlns:xlink="http://www.w3.org/1999/xlink" x="0px"
	 y="0px" viewBox="0 0 550 326" style="enable-background:new 0 0 550 326;" xml:space="preserve">
<style type="text/css">
	.st0{fill:#00363D;}
	.st1{fill:#78A300;}
</style>
<title>support_wordmark</title>
<path class="st0" d="M199.1,65.4c2.9,0.1,5.8-1,7.9-3.1l3.9,4.2c-2.6,2.7-6.2,4.6-11.8,4.6c-9.6,0-15.7-6.3-15.7-14.9
	c-0.2-8.1,6.3-14.8,14.3-14.9c0.2,0,0.4,0,0.5,0c9.5,0,14.9,7.2,14.4,17.2h-22.4C191.1,62.8,194,65.4,199.1,65.4 M206,53.8
	c-0.6-3.9-2.9-6.7-7.6-6.7c-4.1-0.2-7.6,2.7-8.1,6.7H206z"/>
<polygon class="st0" points="51.8,65.1 69.1,47.6 52.3,47.6 52.3,42.1 77.1,42.1 77.1,47.7 59.8,65.2 77.3,65.2 77.3,70.7 
	51.8,70.7 "/>
<path class="st0" d="M96.7,65.4c2.9,0.1,5.8-1,7.9-3.1l3.9,4.2c-2.6,2.7-6.2,4.6-11.8,4.6c-9.6,0-15.7-6.3-15.7-14.9
	c-0.2-8.1,6.3-14.8,14.3-14.9c0.2,0,0.3,0,0.5,0c9.5,0,14.9,7.2,14.4,17.2H87.9C88.7,62.8,91.6,65.4,96.7,65.4 M103.6,53.8
	c-0.6-3.9-2.9-6.7-7.6-6.7c-4.1-0.2-7.6,2.7-8.1,6.7H103.6z"/>
<path class="st0" d="M147.6,56.3c0-9.2,6.9-14.9,14.4-14.9c3.7,0,7.2,1.5,9.6,4.3V28.8h6.1v41.8h-6.1v-4c-2.3,2.9-5.9,4.6-9.6,4.5
	c-8-0.1-14.4-6.6-14.3-14.6C147.6,56.5,147.6,56.4,147.6,56.3 M171.9,56.2c-0.1-5-4.3-9-9.3-8.9c-5,0.1-9,4.3-8.9,9.3
	c0.1,4.9,4.2,8.9,9.1,8.9c5,0,9.1-4,9.1-9C171.9,56.4,171.9,56.3,171.9,56.2"/>
<path class="st0" d="M216.7,64.6l5.5-2.9c1.5,2.7,4.3,4.3,7.4,4.2c3.4,0,5.2-1.8,5.2-3.8c0-2.3-3.3-2.8-7-3.5c-4.9-1-10-2.6-10-8.5
	c0-4.5,4.3-8.7,11.1-8.7c5.4,0,9.3,2.1,11.6,5.6l-5.1,2.8c-1.4-2.1-3.9-3.4-6.4-3.3c-3.3,0-4.9,1.6-4.9,3.4c0,2.1,2.6,2.6,6.8,3.5
	c4.7,1,10.1,2.6,10.1,8.5c0,4-3.4,9.3-11.6,9.2C223.3,71.2,219.1,68.8,216.7,64.6"/>
<polygon class="st0" points="257.5,57.9 252.7,63.2 252.7,70.6 246.6,70.6 246.6,28.8 252.7,28.8 252.7,56.2 265.6,42 273.1,42 
	261.8,54.2 273.3,70.6 266.4,70.6 "/>
<path class="st0" d="M129.2,41.4c-7.3,0-13.3,4.7-13.3,12.5v16.7h6.2v-16c0-4.7,2.7-7.5,7.3-7.5c4.6,0,6.9,2.8,6.9,7.5v16h6.2V53.9
	C142.5,46.1,136.4,41.4,129.2,41.4"/>
<path class="st0" d="M290.3,64.7l5.5-3c1.6,2.7,4.5,4.3,7.6,4.1c3.5,0,5.4-1.7,5.4-3.7c0-2.3-3.4-2.9-7.1-3.7c-4.9-1-10-2.6-10-8.5
	c0-4.5,4.4-8.7,11.2-8.6c5.6,0,9.3,2.1,11.7,5.6l-5.2,2.8c-1.4-2.2-3.9-3.4-6.5-3.3c-3.4,0-5,1.5-5,3.4c0,2.1,2.5,2.5,6.8,3.5
	c4.8,1,10.2,2.6,10.2,8.6c0,4.3-3.8,9.2-11.8,9.2C296.9,71.2,292.8,68.9,290.3,64.7z"/>
<path class="st0" d="M319.6,58.6V42h6.2v16.1c0,4.7,2.3,7.7,6.9,7.7c4.1,0,7.2-3.1,7.2-8.1V42h6.1v28.6H340v-3.7
	c-2,2.8-5.3,4.4-8.7,4.3C323.8,71.2,319.6,66.5,319.6,58.6z"/>
<path class="st0" d="M358.8,67v16.8h-6.1V42h6.1v4c2.3-2.9,5.8-4.6,9.6-4.6c7.5,0,14.3,5.7,14.3,14.9s-7,14.9-14.2,14.9
	C364.5,71.2,360.9,69.7,358.8,67z M376.6,56.2c-0.2-5-4.3-8.9-9.3-8.8c-5,0.2-8.9,4.3-8.8,9.3c0.2,4.9,4.2,8.8,9.1,8.8c5,0,9-4,9-9
	C376.6,56.5,376.6,56.3,376.6,56.2z"/>
<path class="st0" d="M394,67v16.8H388V42h6.1v4c2.3-2.9,5.8-4.6,9.6-4.6c7.5,0,14.3,5.7,14.3,14.9s-7,14.9-14.2,14.9
	C399.7,71.2,396.1,69.7,394,67z M411.8,56.2c-0.2-5-4.3-8.9-9.3-8.8c-5,0.2-8.9,4.3-8.8,9.3c0.2,4.9,4.2,8.8,9.1,8.8c5,0,9-4,9-9
	C411.8,56.5,411.8,56.3,411.8,56.2z"/>
<path class="st0" d="M421.8,56.3c0-8.2,6.7-14.8,14.9-14.8s14.8,6.7,14.8,14.9c0,8.2-6.7,14.8-14.9,14.8
	c-8.1,0.1-14.8-6.5-14.8-14.6C421.8,56.4,421.8,56.4,421.8,56.3z M445.5,56.3c-0.2-4.9-4.3-8.6-9.2-8.4c-4.9,0.2-8.6,4.3-8.4,9.2
	c0.2,4.7,4.1,8.4,8.8,8.4C441.6,65.3,445.6,61.2,445.5,56.3L445.5,56.3z"/>
<path class="st0" d="M456.9,42h6.1v4.5c1.5-2.9,4.4-4.5,8.4-4.5h2.8v5.8h-3.7c-5.2,0-7.3,2.6-7.3,8.6v14.2h-6.2V42z"/>
<path class="st0" d="M478,42h4.9v-6.8l6.2-3.4V42h6.1v5.5h-6.1v11.4c0,5.2,0.8,6,6.1,6v5.7h-0.9c-8.7,0-11.3-2.8-11.3-11.7V47.5H478
	V42z"/>
<rect x="190.4" y="159.8" transform="matrix(0.2707 -0.9627 0.9627 0.2707 -2.3647 367.5205)" class="st1" width="102" height="51"/>
<rect x="286.5" y="184.5" transform="matrix(0.9623 -0.2721 0.2721 0.9623 -45.3995 92.851)" class="st0" width="51.1" height="51.1"/>
</svg>
